<?xml version="1.0" encoding="UTF-8"?>
<svg id="Layer_2" data-name="Layer 2" xmlns="http://www.w3.org/2000/svg" viewBox="0 0 54.18 51.19">
  <defs>
    <style>
      .cls-1 {
        fill: #00843c;
      }
    </style>
  </defs>
  <g id="Isolation_Mode" data-name="Isolation Mode">
    <path class="cls-1" d="M39.24,15.78c-.43-.6.39-1.94,1.84-2.99,1.45-1.05,2.98-1.42,3.41-.82.43.6-.39,1.94-1.84,2.99-1.45,1.05-2.98,1.42-3.41.82ZM49.93,30.73c1.45-1.05,2.27-2.39,1.84-2.99-.43-.6-1.96-.23-3.41.82-1.45,1.05-2.27,2.39-1.84,2.99.43.6,1.96.23,3.41-.82ZM30.33,33.89c-.38-.09-.8-.13-1.27-.13l1.34,2.83c.45-.28.73-.59.84-.94.12-.35.08-.73-.11-1.12-.16-.34-.43-.55-.81-.64ZM25.44,29.56c-.08.32-.04.64.12.98.15.32.41.53.76.63.35.1.76.15,1.23.15l-1.24-2.63c-.49.26-.78.55-.86.86ZM10.52,48.68c.18.72,1.74.94,3.47.49,1.74-.44,2.99-1.38,2.81-2.1-.18-.72-1.74-.94-3.47-.49-1.74.44-2.99,1.38-2.81,2.1ZM7.9,45.05c-.38-.67-.74-1.31-1.09-1.93-4.99-5.34-6.81-7.49-6.81-7.49,0,0,.64-.56,1.75-1.64-.47-.87-.74-1.36-.74-1.36,0,0,.9-.47,2.49-1.42-.04-.13-.06-.2-.06-.2,0,0,.27-.08.78-.24.48-.29,1-.62,1.57-.98C11.07,24.01,19.11,14.01,26.45,0c2.5,2.21,4.94,4.28,7.16,6.1.79-.86,1.57-1.73,2.36-2.63,1.9,2.72,3.77,5.27,5.49,7.56,1-.72,2-1.46,3.01-2.24,4.78,10.98,9.71,20.1,9.71,20.1,0,0-23.81,19.02-44.22,22.29-.77-2.26-1.46-4.3-2.07-6.13ZM33.12,33.31c-.23-.48-.51-.86-.84-1.13-.33-.27-.69-.47-1.07-.6-.38-.13-.79-.21-1.22-.24-.43-.03-.84-.04-1.25-.03l-1.43-3.03c.37-.13.72-.21,1.04-.26.32-.05.59-.07.81-.07l-.26-2.05c-.36.01-.74.06-1.14.13-.4.07-.84.2-1.33.4l-.66-1.4-1.68.79.69,1.47c-.77.55-1.27,1.19-1.52,1.93-.25.74-.15,1.57.29,2.5.23.49.51.88.84,1.17.33.29.68.5,1.06.63.38.14.78.22,1.19.25.41.03.82.04,1.23.03l1.55,3.27c-.5.19-.96.31-1.36.37-.4.06-.72.07-.97.05l.24,2.14c.33.02.74-.02,1.26-.13.51-.11,1.08-.3,1.7-.57l.66,1.4,1.68-.79-.71-1.5c.79-.57,1.31-1.25,1.55-2.04.24-.79.12-1.68-.34-2.67ZM44.13,10.09C25.08,24.44,8.26,30.35,4.47,31.57h0c.56,1.91,2.25,7.53,6.05,18.69,7.27-1.29,14.98-4.57,21.85-8.22-4.34,1.49-9.41-1.06-11.59-5.96-2.28-5.14-.51-10.91,3.96-12.89,4.46-1.98,9.93.59,12.21,5.73,1.97,4.44.91,9.35-2.3,11.88,9.18-5.12,16.48-10.58,18.47-12.12-1.14-2.16-5.09-9.73-8.99-18.59ZM20.08,24.1c.54-.27,1.08-.55,1.63-.83l-.5-.67-1.45,1.08.32.42ZM35.9,4.77C24.8,17.26,13.98,25.36,7.49,29.64c2.3-.85,5.49-2.14,9.32-3.95.44-1.87,1.46-3.52,3.06-4.65,2.18-1.54,4.93-1.74,7.49-.86,4.18-2.4,8.72-5.27,13.45-8.67-1.55-2.06-3.21-4.33-4.91-6.73ZM17.03,21.67l-.2-.16-.78.93c.32-.25.64-.51.97-.77ZM8.3,28.15c1.52-1.03,3.24-2.25,5.11-3.66.17-1.52.76-2.96,1.8-4.15,1.62-1.85,3.99-2.69,6.46-2.57,3.6-3.15,7.46-6.84,11.4-11.09-1.99-1.64-4.16-3.47-6.39-5.42-6.37,11.96-13.27,21-18.38,26.9ZM2.1,32.96c.59,1.13,1.99,3.74,4.53,8.25-.96-2.94-1.66-5.16-2.15-6.76-.68.06-1.19-.07-1.36-.41-.19-.4.13-.97.76-1.54-.05-.18-.1-.34-.14-.49-.69.41-1.25.74-1.64.96ZM5.17,40.2c-.74-1.32-1.39-2.51-1.95-3.52-.41.07-.73.01-.91-.2-.22-.26-.15-.72.12-1.23-.1-.19-.2-.37-.29-.54-.42.41-.78.75-1.04.99.64.73,1.93,2.18,4.07,4.5ZM5.28,32.85c.18.72,1.74.94,3.47.49,1.74-.44,2.99-1.38,2.81-2.1-.18-.72-1.74-.94-3.47-.49-1.74.44-2.99,1.38-2.81,2.1ZM35.42,9.71c1.18-1.29,1.72-2.72,1.18-3.21-.53-.49-1.92.16-3.11,1.44-1.18,1.29-1.72,2.72-1.18,3.21.53.49,1.92-.16,3.11-1.44ZM24.74,8.12c.61.34,1.78-.59,2.61-2.08.83-1.49,1-2.97.39-3.32-.61-.34-1.78.59-2.61,2.08-.83,1.49-1,2.97-.39,3.32Z"/>
  </g>
</svg>