<?xml version="1.0" encoding="UTF-8"?>
<svg id="Layer_2" data-name="Layer 2" xmlns="http://www.w3.org/2000/svg" viewBox="0 0 56.6 56.6">
  <defs>
    <style>
      .cls-1 {
        fill: #f5881f;
      }

      .cls-2 {
        fill: #fff;
      }
    </style>
  </defs>
  <g id="Layer_6" data-name="Layer 6">
    <rect class="cls-1" width="56.6" height="56.6"/>
    <path class="cls-2" d="M33.28,15.3c.2.09.39.2.56.31.17.12.37.17.6.16.12.52.3.99.53,1.4.23.41.48.86.72,1.35.39,1.57.33,3-.19,4.29-.52,1.29-1.31,2.37-2.37,3.25.09.19.09.35.01.48-.36.23-.6.46-.73.68-.13.22-.24.45-.34.67-.09.23-.22.46-.37.71-.15.24-.44.51-.87.8,0,.25-.07.45-.21.58-.14.13-.28.25-.43.35-.15.1-.29.22-.41.36s-.17.35-.13.63l-.95,2.26c-.51.1-.94.23-1.28.4-.34.17-.63.29-.88.35-.25.07-.48.04-.69-.1-.21-.13-.46-.46-.74-.97-.07-.2-.06-.36.04-.48.09-.12.13-.27.09-.44-.19-.42-.27-.76-.24-1.01.03-.26.11-.5.25-.72.13-.22.26-.46.4-.72.14-.26.2-.59.2-1.01.25-.27.49-.64.73-1.11.24-.47.45-.91.62-1.34.37-.47.67-.87.92-1.22.25-.34.47-.68.67-1,.2-.32.39-.66.57-1.02.18-.36.4-.8.64-1.33-.21-.2-.45-.26-.72-.17-.27.09-.56.23-.87.42-.63.08-1.23.22-1.77.42-.55.19-1.19.43-1.91.72-.26.14-.44.26-.56.34-.11.09-.3.17-.57.24-.07.15-.17.28-.28.41-.12.12-.25.25-.39.37-.14.12-.28.25-.42.37-.14.12-.26.25-.36.39-.43.08-.82.04-1.17-.12-.35-.16-.73-.24-1.12-.25-.1-.11-.11-.21-.03-.3.08-.08.05-.21-.07-.38-.24,0-.36-.04-.38-.1-.02-.06-.11-.11-.29-.14-.06-.34-.07-.65-.03-.94.04-.28.11-.57.19-.85.08-.28.16-.55.25-.82.09-.27.14-.56.16-.87.27-.22.48-.46.63-.72.15-.26.28-.54.4-.82.98-.59,1.97-1.08,2.97-1.48,1-.4,2.02-.75,3.05-1.04,1.04-.29,2.1-.52,3.19-.7,1.09-.18,2.21-.35,3.37-.51ZM29.76,36.77c.09.3.16.53.19.68s.07.28.13.39c.05.11.13.25.24.41s.28.4.52.73l.3.42-.36.27c-.09.06-.21.22-.36.48-.15.25-.29.47-.42.64-.2.27-.38.56-.53.85-.16.29-.36.49-.61.61-.36-.02-.61-.04-.76-.07-.15-.02-.3-.05-.45-.07-.17-.13-.34-.26-.49-.4-.16-.14-.32-.27-.49-.4-.12-.11-.2-.17-.23-.2-.04-.03-.06-.05-.08-.07-.02-.01-.04-.02-.08-.02-.03,0-.12-.02-.26-.07l-.33-.26c-.09-.14-.14-.3-.16-.46-.02-.16-.04-.32-.06-.47,0-.07-.02-.15-.03-.25-.01-.1-.02-.17-.04-.21l-.3-.21.09-.42c.02-.26.04-.44.06-.55.02-.1.06-.22.11-.36l.17-.32c.51-.26.91-.5,1.2-.72.35-.09.59-.13.72-.1s.25.05.39.08c.28.06.47.06.56.02l.57-.26.14.46.67-.13Z"/>
  </g>
</svg>