<?xml version="1.0" encoding="UTF-8"?>
<svg id="Layer_2" data-name="Layer 2" xmlns="http://www.w3.org/2000/svg" viewBox="0 0 204.17 259.08">
  <defs>
    <style>
      .cls-1 {
        font-style: italic;
      }

      .cls-2 {
        fill: #b2b1b1;
      }

      .cls-2, .cls-3, .cls-4, .cls-5 {
        fill-rule: evenodd;
      }

      .cls-3 {
        fill: #fff;
      }

      .cls-6 {
        font-family: RobotoCondensed-LightItalic, 'Roboto Condensed';
        font-weight: 300;
      }

      .cls-6, .cls-7 {
        font-size: 39.64px;
      }

      .cls-6, .cls-5 {
        fill: #f5881f;
      }

      .cls-4 {
        fill: #ec1c24;
      }

      .cls-8 {
        fill: #5b4e43;
        font-size: 38px;
        letter-spacing: -.02em;
      }

      .cls-8, .cls-7 {
        font-family: RobotoCondensed-BoldItalic, 'Roboto Condensed';
        font-weight: 700;
      }

      .cls-7 {
        letter-spacing: 0em;
      }
    </style>
  </defs>
  <g id="Layer_1-2" data-name="Layer 1">
    <g>
      <path class="cls-2" d="M166.98,10.32H55.86c-8.7,0-13.49,4.23-12.84,12.36.41,5.45,3.82,10.73,10,10.73h113.97c-.65-1.71-1.14-3.74-1.46-5.93l-95.43-.49-5.93-.81,101.04-1.46c-.24-2.28-.24-4.55-.08-6.75l-69.91-.73,70.31-2.68c.33-1.54.81-2.93,1.46-4.23h0Z"/>
      <g>
        <polygon class="cls-4" points="50.26 152.66 72.86 152.66 72.86 183.71 61.81 175.99 50.26 183.71 50.26 152.66"/>
        <path class="cls-5" d="M170.33,0H54.65c-4.15,0-8.21.65-11.79,2.85-7.32,4.47-9.43,13.66-9.43,23.17.08,48.45-.08,77.47-.08,125.84,0,7.64,6.18,13.82,13.74,13.82h113.64c7.56,0,13.74-6.18,13.74-13.82V51.86c.57-9.19-7.8-13.58-16.5-13.58H54.74c-17.48,0-19.27-21.7-10.24-29.75,2.93-2.6,6.42-3.01,10.24-3.01h115.92c4.47,0,4.39-5.53-.33-5.53h0Z"/>
        <path class="cls-3" d="M200.24,93.89c12.36-18.7-6.99-27.96-22.6-19.02,14.47-4.96,20.4,3.09,12.84,11.95-13.49,15.69-30.24,21.46-55.36,28.53-11.05,3.09-7.4,19.59,4.47,16.5,24.79-6.42,48.45-19.59,60.64-37.96h0Z"/>
        <path class="cls-3" d="M145.45,116.16h-.08c-.98-1.63-2.28-2.93-3.74-4.06-4.39-3.25-10.49-4.23-16.75-2.76-21.3,5.04-25.44,6.5-24.55,14.06l24.71-5.28c.57-.16,1.22-.08,1.71.24.49.33.73.73.89,1.22l.16.65c.08.49,0,.98-.24,1.46-.33.49-.81.81-1.46.98l-24.31,7.89c.08.49.24,1.06.41,1.63.24.98.41,1.87.65,2.76l25.36-3.98c.49-.08,1.14,0,1.63.33.41.24.73.65.81,1.14l.16.73c.16.49.08.98-.24,1.38-.33.49-.81.89-1.38.98l-24.39,6.34c2.6,6.42,7.32,5.37,27.88.49,6.83-1.63,12.19-5.69,14.31-11.3.33-.81.57-1.71.73-2.52.81-5.93-.73-9.92-2.28-12.36h0Z"/>
        <path class="cls-3" d="M18.64,107.38c-21.62-6.02-13.17-25.69,4.47-29.18-14.14,5.77-13.33,15.77-1.79,17.4,20.48,3.01,36.9-3.58,60.48-14.79,10.4-4.96,18.45,9.92,7.48,15.45-22.92,11.38-49.42,16.99-70.64,11.14h0Z"/>
        <path class="cls-3" d="M78.72,82.75c.16-6.99,4.88-13.17,12.11-16.75,10-4.96,28.69-6.83,33.57,3.17,1.46,3.01,1.38,6.26.33,9.51l-.08.16c-2.68,7.72-11.06,15.53-18.05,19.02-7.8,3.82-16.18,3.5-21.87-1.54-2.03-1.87-5.53-6.1-6.02-13.58h0Z"/>
        <path class="cls-5" d="M24.82,96.25c-19.35-1.71-14.06-19.75.89-25.44-11.71,7.07-9.92,15.45.24,15.12,13.66-.49,24.71-5.28,37.64-13.25l-1.87,16.42c-12.52,5.37-25.28,8.21-36.9,7.15h0Z"/>
        <path class="cls-5" d="M197.4,84.46c12.27-14.06-2.36-22.76-16.18-16.58,12.36-3.01,16.26,3.74,9.1,10.32-8.29,7.56-17.23,11.71-28.37,14.71l-1.87,13.98c14.88-4.71,28.45-12.27,37.31-22.44h0Z"/>
      </g>
      <text class="cls-1" transform="translate(0 248.34)"><tspan class="cls-8" x="0" y="0">Recipe</tspan><tspan class="cls-7" x="97.45" y="0"> </tspan><tspan class="cls-6" x="106.51" y="0">Realm</tspan></text>
    </g>
  </g>
</svg>