<?xml version="1.0" encoding="UTF-8"?>
<svg id="Layer_2" data-name="Layer 2" xmlns="http://www.w3.org/2000/svg" viewBox="0 0 295.01 74.1">
  <defs>
    <style>
      .cls-1 {
        fill: #f5881f;
      }
    </style>
  </defs>
  <g id="Layer_6" data-name="Layer 6">
    <g>
      <path class="cls-1" d="M54.18,59.97c-.1.54-.37.92-.81,1.12-.21.02-.36,0-.47-.02-.1-.03-.21-.07-.32-.12-.14-.06-.27-.1-.38-.12l-.26-.19c-.03-.08-.07-.16-.12-.24-.05-.08-.1-.16-.17-.24-.13-.16-.25-.36-.38-.6-.1-.46-.11-.85-.05-1.16.06-.31.14-.62.24-.92.03-.1.06-.2.1-.3.03-.1.06-.2.1-.3-.41-.22-.72-.54-.93-.96-.21-.41-.33-.81-.36-1.19.05-.3.14-.55.26-.73.13-.18.27-.33.44-.44.17-.11.34-.2.53-.26.18-.06.36-.12.54-.17l.31.12c.14.14.29.25.43.33.11-.05.19-.12.23-.23.04-.1.08-.22.11-.35.05-.14.1-.29.16-.43.06-.14.12-.29.2-.43-.02-.21.02-.4.1-.57-.11-.08-.23-.13-.36-.14-.03,0-.11-.02-.24-.05-.19-.14-.32-.27-.39-.37-.07-.1-.14-.2-.2-.3-.1-.21-.21-.37-.36-.5l-.24-.17.12-.24s.05-.07.05-.12-.03-.12-.1-.21c-.03-.18-.03-.29,0-.36l.05-.24c.13-.18.19-.27.19-.29l.21-.21c.32-.08.63-.17.94-.27s.62-.21.94-.32c.3-.1.61-.19.92-.3s.62-.19.94-.27c.11-.08.23-.13.36-.16s.25-.04.36-.06c.1-.02.18-.03.26-.04.08,0,.14-.04.17-.08.19-.06.41-.13.67-.21.4-.11.92-.23,1.58-.37s1.39-.24,2.2-.32l.41-.02c.08.02.16.02.24.01.08,0,.16-.01.24-.01.72,0,1.17.22,1.36.65.14.08.27.17.38.26.11.1.21.19.31.29.05.06.1.12.16.17.06.05.1.08.13.1.27.41.36.78.26,1.1-.14.21-.33.33-.55.36l-.26.14c-.18-.02-.31-.02-.39-.02h-.27c-.4,0-.86.02-1.39.07-.53.05-1.06.12-1.61.2-.55.09-1.08.2-1.59.32-.51.13-.96.26-1.34.41l-.43.22c-.11.18-.18.31-.19.42-.02.1-.03.2-.05.3-.02.06-.03.13-.04.19,0,.06-.02.14-.04.21-.27.33-.41.73-.41,1.19-.11.19-.18.33-.21.42-.03.09-.03.19,0,.32.3.13.59.18.86.14s.54-.07.81-.12c.37-.06.74-.12,1.13-.17.39-.05.79-.07,1.21-.07h.76l-.19.19.12.33c.1.05.16.08.2.1.04.02.08.04.13.07l.12.22c.06.03.12.09.18.17.06.08.09.2.11.36l-.98,1.39-.33.1c-.27-.02-.51.02-.72.1-.11.03-.22.06-.33.08s-.23.04-.36.04c-.32.06-.58.11-.8.14-.21.03-.43.06-.66.1-.29.03-.57.08-.84.13-.27.06-.53.13-.76.23h-.33c-.13,0-.26.02-.39.06-.14.04-.26.08-.37.11-.08.06-.14.13-.17.2-.03.07-.06.15-.1.23-.06.22-.15.41-.26.55v.36c-.13.16-.2.28-.23.37-.02.09-.05.17-.08.25-.03.05-.06.09-.07.13-.02.04-.02.08-.02.13.13.24.16.51.1.81Z"/>
      <path class="cls-1" d="M75.9,53.61c-.02.19,0,.37.05.55.05.18.11.35.18.51.07.17.14.34.2.51s.11.35.14.53c.03.22.03.47,0,.73-.03.26-.09.52-.17.76-.08.25-.18.47-.31.67s-.28.35-.45.44c-.22.29-.49.51-.81.67s-.61.35-.88.57c-.18.11-.37.19-.58.24-.22.05-.43.1-.66.14-.18.1-.38.19-.62.3-.24.1-.49.2-.74.29-.25.09-.51.15-.76.19-.25.04-.48.05-.67.04-.48.18-.94.29-1.4.35s-.98.02-1.59-.11c-.57.08-1.1.06-1.59-.07-.49-.13-.92-.33-1.29-.61-.37-.28-.7-.61-.98-1-.28-.39-.51-.8-.68-1.23-.13-.91-.1-1.73.1-2.47.19-.74.47-1.43.82-2.05.36-.63.77-1.21,1.23-1.74.46-.53.91-1.05,1.34-1.56.1.03.17.03.23-.01.06-.04.11-.1.16-.17.05-.07.1-.14.16-.2.06-.06.12-.1.2-.12.11-.24.27-.42.49-.54.22-.12.39-.29.51-.51.14-.03.26-.08.36-.14.1-.06.19-.14.27-.21.09-.08.18-.16.27-.23.1-.07.21-.12.33-.16v-.26c.29-.13.5-.27.63-.44.14-.17.3-.37.49-.61.14-.02.26-.02.35-.02s.22-.02.39-.05c.13-.22.24-.39.35-.5.1-.11.26-.23.47-.36.19.1.4.16.63.19.23.03.43.14.61.31.02.16.06.28.14.37s.17.17.26.24c.1.07.19.15.27.23s.15.19.18.33c.06.02.11,0,.13-.02.02-.03.07-.04.13-.02.05.22.1.37.17.44.06.07.13.21.19.42-.08.16-.14.32-.18.49-.04.17-.14.29-.3.37-.02.11.02.17.1.18.08,0,.13.05.14.13.02.14,0,.25-.07.31.38.62.72,1.28,1.03,1.97.3.69.65,1.35,1.03,1.97ZM72.91,55.88c.06-.18.15-.32.25-.43.1-.11.16-.28.18-.5-.08-.13-.13-.23-.14-.3-.02-.07-.02-.19-.02-.35-.35-.49-.65-1.02-.91-1.59-.25-.56-.54-1.09-.86-1.59-.03.06-.09.13-.17.19-.08.06-.17.05-.26-.05-.03.13-.09.22-.17.27-.08.06-.17.08-.26.07-.1,0-.2-.03-.3-.07-.1-.04-.2-.09-.27-.16-.46.37-.92.72-1.39,1.07-.46.35-.88.76-1.24,1.22-.06.03-.1.04-.12.04-.02,0-.06,0-.14.04-.13.3-.28.58-.47.82-.18.25-.36.5-.54.75-.18.25-.33.53-.45.81s-.2.62-.21,1c.27.22.59.36.96.41.37.05.74.06,1.13.02.39-.03.77-.08,1.15-.16.37-.07.72-.11,1.04-.11.67-.16,1.24-.37,1.72-.63.48-.26.98-.53,1.5-.8Z"/>
      <path class="cls-1" d="M81.2,58.29c-.18.64-.33,1.12-.47,1.45-.14.33-.34.67-.61,1.02-.21-.03-.35,0-.43.07-.08.08-.17.15-.26.21-.14.03-.25.03-.31,0-.06-.03-.12-.07-.17-.11-.05-.04-.11-.08-.18-.12s-.18-.06-.32-.06c-.03-.13-.07-.25-.11-.36-.04-.11-.15-.15-.32-.12.03-.13.04-.23.02-.32-.02-.09-.04-.17-.06-.24-.02-.07-.04-.14-.06-.21-.02-.07,0-.16.02-.27-.08,0-.14-.06-.19-.17-.05-.11-.1-.22-.17-.33.05-.29.1-.56.14-.81.05-.25.11-.49.18-.72.07-.22.13-.45.18-.67.05-.22.02-.45-.07-.69.06.05.11.04.14-.04.03-.07.06-.17.07-.29.02-.12.02-.24.02-.36s0-.22-.02-.3c.16-.41.29-.84.39-1.28.1-.44.2-.87.29-1.3.09-.43.18-.85.27-1.27.1-.41.22-.8.38-1.15.17-.03.37-.01.59.06.21.07.35.16.39.27.41-.32.78-.71,1.1-1.16.32-.45.65-.9.98-1.33.33-.43.7-.81,1.11-1.15s.92-.53,1.54-.6c.32.24.67.48,1.06.73.39.25.71.57.97.97.13.06.23.13.32.2.09.07.19.15.32.23v.29c.19.18.35.38.47.61.12.23.23.48.32.74.1.26.19.53.29.79.1.26.21.51.33.75-.03.08-.05.15-.05.2s.01.12.04.18c.02.06.04.13.06.19.02.06.02.15,0,.26-.05.7-.27,1.27-.68,1.7-.41.43-.9.78-1.47,1.06-.57.28-1.19.51-1.84.71-.65.19-1.24.4-1.77.62,0,.06.03.1.08.1s.08.04.06.12c.38.24.68.43.91.57.22.14.43.26.63.36.2.1.41.18.65.25.23.07.55.16.97.25.41.1.74.17.97.23.23.06.44.1.63.14.19.04.39.07.59.1.2.02.48.05.85.08.14.14.27.31.37.51.1.2.17.4.2.6.03.2.04.39.02.57-.02.18-.07.33-.17.44.02.05.05.07.11.06.06,0,.12,0,.18.01-.1.06-.18.14-.24.24-.06.1-.13.19-.19.29-.06.1-.14.18-.21.25-.08.07-.19.12-.33.13-.49.19-1.12.2-1.86.04-.75-.17-1.7-.47-2.84-.92-.57-.22-1.04-.42-1.4-.59-.36-.17-.67-.33-.93-.5-.26-.17-.5-.35-.72-.54-.22-.19-.47-.42-.78-.69ZM84.62,50.1c-.18.25-.37.49-.59.69-.21.21-.42.42-.62.63-.2.22-.38.45-.54.72s-.27.57-.33.92c.56-.06,1.14-.22,1.74-.47.6-.25,1.18-.48,1.72-.71-.06-.49-.23-.89-.51-1.19-.28-.3-.57-.5-.87-.6Z"/>
      <path class="cls-1" d="M113.24,49.29c-.4,0-.83.03-1.29.08-.46.06-.92.12-1.36.18-.32.05-.62.09-.92.12-.29.03-.56.06-.8.07-.11.35-.22.66-.33.93-.11.27-.23.53-.36.79-.13.27-.24.55-.35.82s-.2.58-.3.9c-.16.25-.29.49-.39.7-.1.22-.19.46-.25.73-.19.24-.33.49-.43.75-.1.26-.17.49-.21.68l-.1.29c-.1.1-.15.17-.17.23-.02.06-.06.11-.12.16-.02.18-.07.35-.17.53-.03.08-.06.16-.07.23-.02.07-.02.12-.02.16,0,.16-.04.26-.12.31.02.08.02.16,0,.25-.02.09-.03.17-.05.25-.05.19-.06.34-.05.45.05.06.09.12.13.17.04.05.07.11.08.19.1.06.17.1.21.12.06.05.16.1.29.17l.22.24c.08.46,0,.83-.22,1.1-.24.3-.64.45-1.22.45h-.29c-.08-.08-.13-.14-.14-.19-.13-.05-.23-.09-.31-.12-.08-.03-.15-.1-.22-.19-.21-.1-.37-.18-.5-.24l-.21-.12v-.29c-.11-.14-.2-.3-.25-.48-.06-.17-.1-.35-.13-.53-.03-.14-.07-.28-.11-.41-.04-.13-.09-.24-.16-.33-.03-.92.06-1.7.26-2.34.21-.64.42-1.25.65-1.84.13-.32.25-.64.38-.97.13-.33.24-.66.33-1.02l.21-.24c.11-.25.2-.47.27-.63.07-.17.15-.34.23-.51.05-.11.09-.22.13-.32.04-.1.08-.19.11-.27-.1,0-.18,0-.26.01-.08,0-.16.02-.24.04-.1.02-.18.03-.26.04-.08,0-.16.01-.24.01-.11,0-.19,0-.24-.02-.18.08-.37.12-.57.12h-.24s-.09,0-.13-.01c-.04,0-.08-.01-.11-.01-.16,0-.29.02-.38.07h-.79s-.07,0-.12.01c-.05,0-.09.01-.12.01-.11,0-.23-.01-.36-.04s-.26-.08-.41-.16c-.19-.25-.32-.39-.38-.41l-.21-.29c-.02-.1-.04-.19-.07-.27-.03-.09-.06-.19-.1-.3-.06-.16-.12-.33-.18-.51-.06-.18-.08-.4-.08-.66.02-.13.05-.22.1-.29.05-.06.09-.12.12-.17l.07-.36.31.02h.67c.51,0,1.03-.02,1.55-.06.53-.04,1.07-.08,1.62-.13.32-.03.64-.06.97-.1.33-.03.67-.06,1.02-.1.06-.14.13-.28.19-.41l.24-.12c.29-.02.49.02.61.11.12.09.22.17.3.25.35-.03.71-.07,1.06-.11.36-.04.72-.09,1.09-.16.54-.08,1.09-.15,1.64-.21.55-.06,1.08-.1,1.59-.1.22,0,.44,0,.65.02.21.02.4.04.57.07l.24.17c.05.1.12.18.2.26.09.08.18.16.27.24.19.18.38.38.57.62.19.24.26.59.21,1.05-.13.19-.22.3-.29.33l-.21.29-.24-.02c-.1,0-.18.01-.26.04-.08.02-.16.05-.24.08-.06.03-.13.06-.19.08-.06.02-.14.04-.21.06-.14,0-.26,0-.35-.01-.09,0-.18-.01-.27-.01Z"/>
      <path class="cls-1" d="M123.6,58.46c.03.41-.02.76-.14,1.03-.13.27-.3.5-.53.69s-.48.34-.76.45c-.29.11-.57.22-.84.31-.13-.08-.25-.16-.37-.25s-.26-.16-.42-.2c-.21-.38-.41-.72-.6-1.02-.19-.29-.28-.63-.26-1.02,0-.02.01-.1.04-.26.02-.16.06-.33.1-.53.04-.19.07-.37.1-.54.02-.17.04-.26.04-.27-.37.03-.75.11-1.15.24s-.78.28-1.16.45c-.37.18-.73.35-1.05.53-.33.18-.59.33-.8.45,0,.05-.03.16-.1.35s-.14.37-.24.57-.2.38-.31.54c-.11.16-.22.24-.33.24.02.05.04.1.07.14.03.05.03.11,0,.19-.22.06-.42.15-.6.25-.18.1-.36.19-.55.26-.19.07-.4.11-.62.11s-.49-.08-.79-.24c0-.1-.04-.18-.12-.25s-.16-.14-.25-.19c-.09-.06-.16-.1-.23-.14-.06-.04-.1-.08-.1-.11-.08.02-.11-.04-.1-.17.02-.13.08-.16.19-.1-.18-.22-.28-.42-.32-.59-.04-.17-.13-.38-.27-.63.03-.03.06-.09.08-.17.02-.08.04-.15.06-.21.02-.06.04-.11.07-.14.03-.03.07-.02.12.02-.03-.14-.03-.26,0-.36.03-.1.06-.18.1-.26.03-.08.06-.16.07-.24.02-.08,0-.17-.07-.26.25-.35.42-.73.5-1.13.08-.41.13-.78.14-1.11.11-.11.21-.27.3-.48.09-.21.16-.42.2-.63.05-.22.07-.42.06-.62,0-.2-.04-.36-.08-.49.02-.08.1-.1.26-.07.1-.53.16-1.12.2-1.78.04-.66.11-1.29.2-1.89.1-.6.25-1.12.48-1.58.22-.45.58-.75,1.08-.9.1.33.22.63.37.88s.32.5.5.73c.18.23.37.47.55.7.18.24.35.51.51.81-.02.3-.05.65-.1,1.05-.05.4-.11.8-.18,1.22-.07.41-.14.81-.21,1.19-.07.38-.14.71-.2.98.02.08.06.13.13.14.07.02.08.09.04.21.38-.1.78-.18,1.19-.26.41-.08.83-.17,1.24-.26s.82-.2,1.21-.32c.39-.12.75-.27,1.09-.44.08-.62.18-1.24.31-1.86s.14-1.26.05-1.91c.08-.06.14-.14.19-.24.05-.1.13-.16.24-.19-.08-.3-.11-.62-.1-.96.02-.33.08-.65.18-.96.1-.3.25-.56.45-.78s.44-.35.73-.42c.17.25.33.53.45.82s.26.59.39.88c.14.29.28.57.43.84s.35.49.59.68c.05.46.08.94.11,1.43s.04,1,.06,1.5c-.13.61-.27,1.19-.42,1.76-.15.57-.26,1.17-.32,1.8-.11.13-.2.27-.26.43-.06.16-.13.32-.19.49-.06.17-.14.33-.21.48-.08.15-.18.28-.29.39.06.19.08.37.04.54-.04.17,0,.37.13.61Z"/>
      <path class="cls-1" d="M138.94,47.33c.02.11.02.2.01.25,0,.06-.02.11-.02.16,0,.05-.01.1-.01.16s.02.14.05.25c-.33.54-.72.91-1.16,1.11-.44.2-.91.34-1.42.43-.51.09-1.03.18-1.56.27-.53.1-1.06.3-1.59.62-.21-.08-.39-.08-.56,0s-.41.1-.73.07c-.1.1-.21.16-.36.2-.14.04-.29.08-.43.13.06.14.09.29.08.44,0,.15.01.27.06.37.56.05,1.17.04,1.85-.02s1.34-.1,2-.12c.02.08,0,.13-.02.16-.03.02-.04.07-.02.13.11.08.22.18.33.3.11.12.22.23.33.35.11.11.23.2.35.27s.26.1.42.08c.06.13.11.27.13.42.02.15,0,.31-.06.47-.25.18-.51.35-.76.54s-.52.35-.8.49c-.28.14-.57.26-.88.35-.31.09-.66.12-1.04.11h-.18s-.09-.02-.16-.07c-.13.08-.31.1-.54.07-.23-.03-.41,0-.54.07-.18-.08-.39-.12-.63-.11-.25,0-.47-.02-.66-.08-.25.33-.49.69-.69,1.07-.21.38-.39.79-.55,1.22.54.08.99.11,1.35.1.36-.02.7-.04,1.02-.08.32-.04.65-.08.98-.12.33-.04.76-.05,1.27-.04.32-.18.7-.29,1.13-.35.44-.06.84-.15,1.21-.27.13.05.24.13.33.25.1.12.19.23.27.33.09.1.18.19.27.27.1.08.21.11.36.1.06.06.11.14.13.23s.04.17.06.25c.02.08.04.15.08.2.04.06.11.08.2.06-.24.53-.51.93-.82,1.21-.31.28-.67.49-1.06.63-.4.14-.84.25-1.33.33-.49.08-1.02.18-1.61.29-.14.03-.26.03-.36-.01-.1-.04-.21-.06-.33-.06-.37.08-.8.15-1.31.21-.51.06-1.03.09-1.55.07-.53-.02-1.03-.08-1.5-.2-.48-.12-.87-.33-1.17-.63-.13-.11-.21-.24-.25-.39-.04-.15-.15-.27-.32-.35-.02-.21-.05-.44-.1-.69-.05-.25-.1-.52-.14-.8-.05-.28-.08-.55-.11-.82-.02-.27-.01-.52.04-.74.05-.24.15-.45.3-.65.15-.19.2-.4.16-.62.08-.02.13-.06.14-.13.02-.07.08-.1.19-.08.1-.29.2-.56.31-.81.11-.25.23-.5.35-.74.12-.24.24-.48.36-.73.12-.25.23-.52.35-.82-.22-.21-.39-.43-.49-.68-.1-.25-.18-.49-.23-.74-.05-.25-.09-.5-.12-.76-.03-.26-.09-.53-.17-.8.16-.24.35-.43.59-.59.23-.15.48-.27.75-.37.27-.1.57-.18.88-.24s.65-.14,1-.22c.64-.21,1.21-.37,1.71-.48.5-.11,1-.2,1.48-.27.49-.07.99-.14,1.52-.2.53-.06,1.12-.16,1.79-.29.14.14.28.22.41.22.06-.14.14-.19.23-.13.09.06.12.01.11-.13.16.27.36.5.61.68.25.18.52.34.82.47Z"/>
    </g>
    <g>
      <path class="cls-1" d="M150.01,42.89c-1.11-.32-2.06-.83-2.84-1.54-.78-.71-1.45-1.58-1.99-2.59.18-.71.52-1.33,1.03-1.86.51-.53,1.09-1,1.75-1.4.66-.41,1.38-.75,2.14-1.04.76-.29,1.51-.55,2.22-.78.16.03.23.03.23-.02,0-.05.06-.03.2.05.88-.38,1.91-.76,3.07-1.16,1.16-.4,2.42-.63,3.77-.7.17-.12.38-.2.63-.24.25-.04.52-.08.8-.11.28-.03.54-.06.8-.11.25-.04.46-.11.63-.2.17.16.41.24.72.25.31,0,.64.1.99.3.1.01.1-.03-.01-.13-.11-.1-.11-.19.01-.25.33-.04.63,0,.9.13.27.12.52.27.76.44.24.17.46.32.66.45.21.13.42.18.65.16.26.25.56.48.9.69.34.21.67.42.99.64.32.22.59.47.81.76.22.28.36.62.4,1,0,.15.05.24.18.25.13.01.23.08.29.2.13.94.07,1.76-.17,2.48-.24.72-.57,1.39-.99,2.01-.42.62-.88,1.22-1.37,1.78s-.93,1.17-1.33,1.8c.35.35.73.66,1.16.93s.86.54,1.3.8c.44.26.86.54,1.27.84.4.3.76.66,1.06,1.06.09.14.27.23.53.25.11.3.25.59.42.9.17.3.34.59.5.87.16.28.26.53.31.76.05.23,0,.42-.13.59.19.08.31.23.36.44.05.21.07.38.06.51-.48.75-.81,1.27-.98,1.57-.17.3-.3.52-.39.66-.09.14-.18.26-.27.38-.09.11-.3.34-.62.68-1.26.96-2.58,1.84-3.97,2.64s-2.86,1.41-4.4,1.81c-.11.19-.28.36-.5.5-.23.14-.49.27-.79.37-.3.11-.61.21-.95.3-.34.09-.64.17-.92.25-.13-.04-.21-.11-.24-.22-.03-.11-.1-.19-.24-.22,0,.31-.11.48-.35.52s-.54.01-.91-.07c-.37-.09-.76-.23-1.16-.41-.41-.19-.76-.37-1.06-.54-.1.24-.23.5-.4.77-.16.27-.34.47-.53.6-.36-.01-.62-.02-.79-.03-.17,0-.32.07-.46.24-.21-.08-.38-.17-.49-.27-.11-.1-.23-.21-.34-.31-.11-.1-.24-.19-.38-.27-.14-.07-.34-.14-.6-.19.04-.13-.02-.32-.18-.58-.16-.25-.35-.39-.58-.42.1-.22.03-.47-.24-.76-.26-.29-.48-.63-.65-1.03,0-.18,0-.37,0-.56s0-.37.02-.54c.02-.17.06-.32.12-.46.06-.14.18-.24.35-.31-.06-.33-.2-.63-.41-.92.21-.2.34-.44.38-.72.05-.27.09-.55.12-.84.03-.29.09-.57.16-.84.07-.28.21-.52.42-.72-.06-.07-.12-.13-.17-.17-.06-.05-.09-.13-.1-.26.31-.68.52-1.24.62-1.7.1-.46.18-.9.22-1.33.04-.43.09-.89.14-1.38s.19-1.12.41-1.89c-.08-.45-.07-.87.02-1.23.09-.37.18-.73.29-1.09s.17-.73.21-1.12c.04-.39-.03-.83-.18-1.33-.43.1-.72.28-.88.56-.16.27-.25.63-.25,1.07-.21.23-.49.35-.84.38-.36.03-.67.11-.94.24ZM163.59,36.79c-1.58.12-3.11.43-4.6.92-1.49.5-2.72,1.12-3.69,1.86.55.38,1.12.7,1.7.97.58.27,1.04.67,1.38,1.2,1.17-.61,2.16-1.34,3-2.19.83-.85,1.57-1.77,2.2-2.76ZM167.54,48.41c-1.02-.43-1.94-.65-2.75-.66s-1.57.07-2.28.27c-.71.19-1.38.43-2.02.7-.64.27-1.28.5-1.93.67-.24.9-.48,1.89-.72,2.96-.24,1.08-.47,2.13-.7,3.16.9-.23,1.72-.51,2.45-.84.73-.34,1.44-.7,2.11-1.1.67-.39,1.34-.79,1.99-1.18.65-.39,1.33-.77,2.03-1.13.04-.31.18-.57.42-.78.23-.2.47-.4.7-.6.24-.19.43-.4.59-.62.15-.22.19-.51.1-.86Z"/>
      <path class="cls-1" d="M183.37,55.16c.21.75.23,1.35.06,1.8-.17.45-.44.81-.81,1.07-.37.26-.81.43-1.31.51-.5.08-.99.11-1.45.08-.29-.33-.57-.75-.83-1.26-.26-.51-.51-1.04-.75-1.59-.24-.55-.46-1.1-.66-1.64-.2-.54-.37-1.02-.52-1.44.09-.32.14-.67.13-1.07,0-.4-.02-.8-.05-1.21-.03-.41-.06-.82-.1-1.24s-.04-.82-.04-1.21c.06-1.08.21-2.13.45-3.13.24-1,.4-2.03.49-3.09.03-.23-.02-.45-.13-.64-.11-.19-.15-.38-.12-.56.01-.1.08-.18.21-.23.12-.05.19-.14.2-.27.05-.29.04-.52-.02-.69-.06-.17-.04-.39.06-.66.1-.22.23-.53.38-.95s.17-.83.07-1.26c.21-.18.41-.38.59-.6.18-.22.37-.43.57-.62.2-.19.42-.36.68-.52.25-.16.57-.25.95-.29.23.23.39.5.49.79.1.3.19.59.29.89.1.3.22.57.38.82.16.25.39.44.71.56.02.2.05.46.08.76.03.3.08.6.13.89.06.29.14.55.26.78.11.23.28.37.49.43-.32,1.27-.62,2.52-.88,3.75-.26,1.23-.46,2.47-.58,3.7-.12,1.23-.15,2.46-.08,3.69.07,1.22.29,2.45.65,3.66Z"/>
      <path class="cls-1" d="M186.82,40.16c.12-.55.36-1.04.71-1.46.35-.42.75-.79,1.19-1.11.44-.32.9-.59,1.39-.82.49-.23.95-.44,1.4-.61.97-.54,2.01-1.07,3.12-1.59,1.11-.52,2.25-1,3.42-1.43,1.17-.44,2.39-.77,3.65-.99,1.26-.23,2.61-.21,4.05.04.1.25.24.47.42.69s.36.42.55.63c.19.21.36.42.51.62.15.2.25.42.3.64.28.2.51.43.69.68.18.25.24.6.19,1.04-.23.23-.46.44-.68.63-.22.19-.47.37-.73.52-.96-.13-1.92-.1-2.88.08-.96.18-1.81.34-2.57.47-.25-.2-.54-.29-.86-.25-.32.03-.64.12-.97.26-.33.14-.66.28-.99.42-.33.14-.65.2-.96.18-.23.23-.53.4-.89.5-.36.1-.75.2-1.18.3-.01.13.02.21.1.24.08.03.1.11.07.24.17.16.38.27.63.32.25.05.51.1.79.15.27.05.52.12.74.21.21.09.37.26.48.51.38-.04.72.01,1.02.16.3.15.55.34.75.57.2.23.37.49.49.77.12.28.19.54.22.76.1.2.2.27.29.24.1-.04.22,0,.36.12.11.32.34.64.68.95.34.31.62.66.84,1.04.12.63.22,1.19.3,1.68s.04,1-.1,1.53c-.28.98-.71,1.87-1.31,2.68-.59.81-1.28,1.54-2.07,2.21-.79.66-1.64,1.25-2.56,1.76-.92.51-1.82.95-2.7,1.33-.1-.01-.21,0-.3.03-.1.04-.13-.02-.1-.18-.18.2-.39.34-.63.42-.24.08-.49.12-.77.14-.28.02-.57.03-.86.04-.29,0-.57.05-.81.13-.2-.16-.37-.31-.53-.46-.16-.15-.29-.35-.39-.59-.13.01-.19-.04-.19-.17,0-.13-.05-.19-.15-.18.12-.27.18-.42.16-.46-.02-.04-.06-.06-.12-.08-.07-.02-.13-.04-.18-.08-.06-.03-.07-.09-.06-.17.08-.21.09-.45.04-.72s-.11-.53-.16-.81c-.06-.28-.07-.54-.03-.8.04-.26.2-.48.49-.67.87,0,1.69-.11,2.44-.36.76-.25,1.46-.56,2.11-.94.65-.38,1.27-.78,1.85-1.2.58-.42,1.16-.81,1.74-1.15.05-.24.14-.44.26-.61.12-.17.25-.32.39-.47.14-.14.26-.3.37-.46.11-.17.18-.37.2-.6,0-.18-.05-.28-.17-.31-.12-.03-.19-.11-.2-.27l-.43-.07c-.51-.23-1.08-.4-1.71-.53-.63-.12-1.17-.28-1.63-.46-.26.18-.52.25-.77.2-.25-.05-.57-.09-.96-.13-.87.04-1.71.04-2.52,0-.81-.04-1.6-.18-2.38-.43-.06-.12-.14-.23-.23-.32-.09-.09-.23-.1-.43-.03-.17-.19-.35-.37-.52-.54-.17-.17-.34-.37-.49-.58.02-.31.03-.57.03-.79,0-.22-.1-.42-.3-.6.07-.34.11-.62.14-.82s0-.47-.09-.8Z"/>
      <path class="cls-1" d="M221.98,53.74c-.4.07-.91.11-1.51.13-.6.01-1.14.16-1.63.45-1.35.1-2.74.08-4.16-.05-1.43-.13-2.74-.33-3.95-.61-.28-.25-.57-.48-.85-.7-.28-.21-.64-.35-1.08-.4-.66-.42-1.22-.95-1.68-1.61-.46-.66-.84-1.36-1.16-2.13-.31-.76-.55-1.55-.72-2.37-.17-.82-.28-1.61-.33-2.37.26-1.18.69-2.22,1.3-3.12.61-.9,1.24-1.79,1.88-2.69.31-.19.54-.37.69-.56.15-.18.31-.35.48-.51.18-.16.35-.32.53-.48.18-.16.33-.35.46-.57.52-.18.96-.42,1.33-.7.37-.28.73-.58,1.08-.89.35-.31.72-.6,1.1-.87.38-.27.83-.5,1.35-.69.18-.25.4-.46.66-.63.26-.17.53-.34.81-.51s.54-.35.79-.53c.25-.18.44-.41.56-.68.15.19.33.24.56.15.22-.09.43-.18.62-.28.12-.04.23-.03.33.04.1.07.19.13.27.2.08.07.16.1.22.11.06,0,.11-.06.15-.19.13-.01.17.05.13.18-.04.13-.06.23-.08.28.2-.05.38-.02.53.08.15.1.38.15.69.14.11.12.15.21.11.28-.04.07-.06.18-.04.33.79.15,1.31.45,1.56.93s.33.98.21,1.54c-.12.55-.38,1.08-.79,1.59-.41.51-.87.86-1.38,1.07-1.18.46-2.29.95-3.33,1.46-1.04.51-1.85,1.18-2.46,2.02-.59.24-1.1.54-1.54.88-.44.34-.85.72-1.22,1.13-.38.41-.73.84-1.06,1.27-.33.43-.67.86-1.03,1.29.06.35.04.63-.08.84-.12.21-.23.42-.34.63.09.38.22.7.38.98.16.28.33.55.51.81,1.73.33,3.54.45,5.45.37,1.9-.08,3.81-.21,5.71-.39.21.23.44.45.7.64.26.19.51.39.74.61.23.22.42.47.58.75.16.28.22.64.19,1.08-.31.42-.67.81-1.07,1.17-.4.36-.79.73-1.19,1.11Z"/>
      <path class="cls-1" d="M245.07,29.25c.11.55.25,1.02.42,1.42.17.39.35.77.55,1.13.17.34.32.68.48,1.01.15.33.28.73.38,1.21-.13.68-.21,1.31-.24,1.87-.03.57-.06,1.16-.09,1.78-.31.93-.62,1.76-.92,2.49-.31.73-.55,1.36-.72,1.89-.11.14-.2.3-.28.47s-.15.36-.23.54c-.04.08-.09.2-.15.36-.06.16-.11.27-.16.33l-.79-.18-.05.97-.52.21-.33.5c-.39.89-.82,1.65-1.29,2.28-.47.63-1.02,1.2-1.64,1.72s-1.34,1.01-2.15,1.48-1.72,1-2.74,1.57c-.44,0-.81,0-1.13.03-.32.02-.62.04-.9.04-.48.05-1.08.08-1.8.08-.1-.19-.23-.32-.39-.38-.16-.06-.3-.08-.43-.07-.45-.16-.81-.42-1.07-.79-.26-.37-.51-.77-.77-1.21-.16-.27-.31-.51-.46-.74-.15-.23-.32-.46-.5-.7l.63-.26-.94-.82c-.06-.07-.13-.13-.21-.19-.08-.05-.15-.12-.21-.19l-.1-.6c-.27-1.74-.47-3.34-.62-4.8-.15-1.46-.09-2.78.17-3.96l-.05-.42c.02-.57.04-1.04.08-1.41s.06-.73.08-1.07c.02-.57.07-1.1.17-1.6.35-.11.6-.29.75-.52.15-.23.29-.45.39-.64.35-.06.6-.04.74.07.14.11.29.3.45.57.15.21.34.45.56.71.22.26.53.44.93.55.07.2.16.4.28.61.11.21.23.43.36.67.25.41.48.84.7,1.29.22.45.36.89.43,1.32-.2.51-.34,1.09-.41,1.74-.07.65-.09,1.3-.06,1.95.03.65.11,1.27.24,1.86.13.59.29,1.08.49,1.47l.28.47.64-.15c.74-.29,1.41-.58,2-.89.6-.31,1.14-.66,1.64-1.04.5-.39.96-.83,1.4-1.33.43-.5.88-1.06,1.35-1.71.47-.64.86-1.36,1.17-2.15.31-.79.56-1.61.74-2.45.18-.84.29-1.67.35-2.48.05-.81.07-1.58.04-2.29.41-.2.6-.53.55-.98l-.12-.41c-.12-.14-.14-.32-.06-.53.1-.5.42-.9.95-1.22.43.21.83.45,1.17.72.35.27.68.54.99.82Z"/>
      <path class="cls-1" d="M255.54,47.32c.21.75.23,1.35.06,1.8-.17.45-.44.81-.81,1.07-.37.26-.81.43-1.31.51-.5.08-.99.11-1.45.08-.29-.33-.57-.75-.83-1.26-.26-.51-.51-1.04-.75-1.59-.24-.55-.46-1.1-.66-1.64-.2-.54-.37-1.02-.52-1.44.09-.32.14-.67.13-1.07,0-.4-.02-.8-.05-1.21-.03-.41-.06-.82-.1-1.24s-.04-.82-.04-1.21c.06-1.08.21-2.13.45-3.13.24-1,.4-2.03.49-3.09.03-.23-.02-.45-.13-.64-.11-.19-.15-.38-.12-.56.01-.1.08-.18.21-.23.12-.05.19-.14.2-.27.05-.29.04-.52-.02-.69-.06-.17-.04-.39.06-.66.1-.22.23-.53.38-.95.15-.41.17-.83.07-1.26.21-.18.41-.38.59-.6.18-.22.37-.43.57-.62.2-.19.42-.36.68-.52.25-.16.57-.25.95-.29.23.23.39.5.49.79.1.3.19.59.29.89.1.3.22.57.38.82.16.25.39.44.71.56.02.2.05.46.08.76.03.3.08.6.14.89.06.29.14.55.26.78.11.23.28.37.49.43-.32,1.27-.62,2.52-.88,3.75-.26,1.23-.46,2.47-.58,3.7-.12,1.23-.15,2.46-.08,3.69.07,1.22.29,2.45.65,3.66Z"/>
      <path class="cls-1" d="M279.9,28.86c-.63.07-1.31.19-2.04.36-.73.17-1.44.34-2.14.52-.5.13-.98.25-1.44.35-.46.1-.88.19-1.26.25-.12.58-.24,1.09-.37,1.54s-.28.89-.43,1.32c-.16.45-.29.91-.41,1.37-.12.46-.22.96-.32,1.48-.21.43-.38.83-.51,1.19-.13.36-.22.76-.27,1.2-.26.41-.45.84-.55,1.27-.11.44-.18.81-.22,1.12l-.1.47c-.14.17-.21.3-.23.39-.02.09-.07.18-.16.27,0,.28-.05.57-.18.87-.04.13-.06.26-.07.37s-.02.2-.01.25c.03.25-.02.43-.14.52.04.12.05.26.04.4-.01.14-.02.28-.03.41-.04.31-.04.56,0,.73.09.09.17.17.24.24.07.07.13.17.17.29.16.09.28.14.36.15.11.07.27.14.49.22l.38.34c.21.72.16,1.32-.15,1.79-.33.52-.95.83-1.86.93l-.46.05c-.14-.11-.23-.21-.26-.28-.21-.05-.38-.1-.52-.14-.13-.04-.26-.13-.38-.27-.35-.12-.63-.21-.84-.29l-.36-.15c-.03-.28-.05-.43-.05-.46-.2-.21-.36-.45-.48-.72-.12-.27-.22-.54-.3-.81-.08-.22-.16-.43-.24-.63-.09-.2-.19-.36-.31-.51-.21-1.46-.21-2.72.01-3.77.22-1.05.46-2.06.71-3.04.15-.53.29-1.06.44-1.61.15-.54.27-1.1.36-1.67l.3-.42c.13-.42.24-.78.33-1.06.09-.28.18-.56.27-.86.06-.19.11-.36.15-.54.04-.17.09-.32.12-.46-.15.02-.29.04-.42.06-.13.03-.25.06-.38.1-.15.04-.29.08-.41.1-.13.03-.25.05-.38.06-.18.02-.31.02-.38,0-.27.16-.56.25-.89.29l-.38.04c-.08,0-.15,0-.21,0s-.12,0-.17,0c-.25.03-.45.09-.6.18-.3.03-.6.06-.88.1l-.38.04c-.05,0-.11.02-.19.04-.07.02-.14.03-.19.04-.18.02-.37.02-.58,0-.21-.02-.43-.08-.67-.18-.35-.37-.58-.57-.68-.58l-.39-.42c-.04-.15-.1-.29-.16-.42-.07-.13-.13-.29-.2-.46-.13-.24-.25-.5-.37-.79-.12-.28-.2-.62-.25-1.03,0-.21.04-.36.1-.47.07-.11.12-.21.16-.29l.05-.58.5-.02,1.07-.12c.81-.09,1.63-.21,2.46-.36.83-.15,1.68-.32,2.56-.49.5-.11,1.01-.21,1.52-.32.51-.11,1.05-.22,1.6-.33.08-.24.15-.47.23-.68l.36-.23c.45-.07.78-.05.99.07.21.12.38.24.52.35.55-.11,1.11-.23,1.67-.35.56-.13,1.13-.27,1.7-.44.85-.22,1.7-.43,2.57-.62.86-.2,1.7-.34,2.51-.43.35-.04.7-.06,1.03-.07.33-.01.64,0,.93.02l.41.22c.09.14.22.27.37.38.15.11.31.22.48.33.33.25.67.54,1.02.89.34.35.52.89.52,1.64-.17.33-.3.52-.4.58l-.29.49h-.38c-.15.02-.29.05-.41.11-.12.05-.25.11-.37.17-.1.06-.19.12-.29.17-.1.05-.21.09-.33.13-.23.02-.41.04-.55.04-.14,0-.29.01-.44.03Z"/>
      <path class="cls-1" d="M289.37,41.76c.07.2.13.38.18.56.04.18.09.36.14.56-.09.55-.21,1.05-.34,1.5-.06.19-.1.31-.11.36-.02.05-.03.09-.03.12,0,.03.02.06.05.09.03.04.05.14.07.32l-.14.48c-.11.19-.24.35-.39.47-.15.12-.32.23-.48.32-.07.06-.15.11-.23.16-.08.05-.15.1-.19.16l-.06.47-.52.13c-.39.14-.76.24-1.09.27l-.42.05c-.33-.25-.6-.44-.79-.57-.19-.13-.41-.25-.65-.35-.33-.45-.54-.85-.63-1.2-.09-.32-.17-.53-.26-.63l-.59-.47.42-.39-.53-.67c.28-.26.49-.45.63-.57.14-.12.26-.24.36-.37.1-.13.21-.29.31-.48.11-.19.28-.5.51-.94l.29-.53.49.22c.13.06.38.11.73.13.35.03.65.05.91.07.42.08.83.13,1.23.16s.73.12.98.3l.18.29ZM290.78,19.71c.02.23.02.51,0,.85-.03.34-.05.67-.06,1.01-.02.34,0,.63.06.9.05.26.19.42.4.48-.31,1.39-.5,2.56-.56,3.49-.07.93-.11,1.81-.14,2.65-.02.84-.08,1.72-.15,2.65-.08.93-.27,2.08-.59,3.45-.19.84-.47,1.44-.84,1.8-.37.36-.79.57-1.24.62-.46.05-.94-.03-1.45-.23-.51-.2-.98-.43-1.42-.69-.13-.47-.2-1.06-.21-1.77-.01-.7,0-1.44,0-2.21.02-.77.04-1.51.07-2.22.03-.71.04-1.31.04-1.79.22-.31.38-.55.46-.74.08-.19.13-.39.15-.59.02-.21.02-.46.01-.77,0-.31,0-.75.05-1.31.02-.28-.03-.53-.14-.74-.11-.21-.15-.41-.13-.62.04-.11.11-.19.22-.25.11-.06.17-.16.18-.29.07-.34.06-.6,0-.79-.07-.18-.06-.42.04-.72.1-.22.23-.56.37-1.02.14-.46.16-.94.06-1.41.21-.2.4-.43.58-.68.18-.25.36-.48.56-.7.19-.21.42-.4.67-.55.25-.16.57-.25.95-.3.23.26.42.51.54.75.13.24.25.47.36.69.11.22.26.42.43.61.17.19.42.34.74.46Z"/>
    </g>
    <g>
      <path class="cls-1" d="M3.36,38.08c-.11.03-.22-.04-.33-.23-.11-.18-.23-.36-.36-.54l.38-.03c-.2-.49-.28-.94-.24-1.37.04-.43.1-.85.18-1.25.08-.41.14-.8.19-1.19.05-.38-.03-.77-.22-1.17.12.06.2.02.25-.11s.08-.29.09-.49c.02-.2.01-.4-.02-.62-.03-.21-.06-.39-.1-.52.23-.73.4-1.48.51-2.24.1-.77.19-1.52.26-2.27.07-.75.16-1.48.27-2.19.11-.71.27-1.38.49-2.02.31-.07.65-.06,1.02.03.36.09.61.23.74.4.66-.61,1.22-1.32,1.7-2.14.48-.82.96-1.62,1.46-2.41.49-.79,1.07-1.5,1.72-2.13.65-.63,1.5-1.05,2.54-1.25.58.34,1.23.7,1.95,1.08.72.38,1.33.89,1.82,1.51.19.1.38.2.56.31.18.11.37.21.56.31l.04.51c.34.27.64.59.89.97s.48.78.69,1.21c.21.43.41.86.61,1.3.2.44.42.85.66,1.21-.03.14-.04.26-.02.36.02.1.05.2.1.3.04.1.08.21.12.33.03.12.06.28.07.46.01,1.21-.29,2.22-.92,3.02-.63.8-1.42,1.48-2.36,2.03-.95.55-1.96,1.04-3.05,1.47-1.08.43-2.07.87-2.94,1.34,0,.09.06.13.17.12.1,0,.14.06.1.2.72.35,1.28.63,1.67.85.4.22.77.4,1.11.54.34.14.72.25,1.13.33s.97.17,1.69.26c.72.1,1.28.18,1.69.25.41.07.77.12,1.1.14.32.03.67.05,1.04.06.37.01.86.03,1.48.04.27.23.5.51.69.83.19.33.33.66.43.99.1.34.14.66.14.97,0,.31-.08.56-.23.76.03.09.1.12.2.1.1-.02.21-.02.33-.01-.15.13-.27.28-.37.45-.1.17-.2.34-.3.51-.1.17-.22.33-.35.48-.14.15-.32.25-.54.29-.79.39-1.83.49-3.13.31-1.3-.18-2.97-.56-5.01-1.14-1.01-.28-1.83-.54-2.47-.78-.64-.24-1.2-.48-1.68-.73-.48-.24-.93-.51-1.34-.81-.42-.29-.89-.65-1.43-1.06-.07.03-.1.08-.11.15,0,.07-.04.12-.11.15-.03.92-.15,1.67-.33,2.26-.19.59-.48,1.2-.89,1.83-.37-.04-.61.02-.72.17-.11.15-.26.29-.43.42-.22.06-.39.07-.51.03-.12-.05-.23-.1-.32-.16-.1-.06-.21-.12-.32-.18-.12-.06-.3-.06-.55-.02-.09-.2-.17-.39-.26-.58-.08-.19-.27-.26-.57-.21.05-.21.06-.39.02-.53-.04-.15-.08-.28-.14-.4-.06-.12-.11-.25-.15-.38-.05-.13-.04-.29,0-.48ZM13.38,21.5c-.26.46-.55.88-.89,1.26-.33.38-.66.78-.98,1.19-.32.41-.6.84-.83,1.31-.23.47-.38,1.01-.44,1.64.94-.2,1.92-.55,2.93-1.06,1.01-.51,1.96-1,2.86-1.47-.19-.83-.54-1.48-1.06-1.95-.52-.47-1.05-.77-1.59-.91Z"/>
      <path class="cls-1" d="M32.26,36.1c.17.67.18,1.21.02,1.61s-.41.72-.74.94c-.34.22-.73.37-1.18.43-.45.06-.89.08-1.3.05-.26-.3-.49-.68-.72-1.14s-.44-.94-.64-1.44c-.2-.5-.39-.99-.56-1.48-.17-.49-.32-.92-.44-1.3.09-.28.14-.6.14-.96,0-.35,0-.71-.03-1.08-.02-.36-.04-.73-.06-1.11-.02-.38-.03-.74,0-1.08.08-.97.23-1.9.46-2.79.23-.89.4-1.81.5-2.76.03-.21,0-.4-.1-.58-.1-.18-.13-.34-.1-.51.01-.09.08-.16.19-.21.11-.04.17-.12.18-.24.05-.26.05-.46,0-.62-.05-.16-.03-.35.07-.59.1-.19.22-.47.36-.84.14-.37.17-.74.09-1.12.19-.15.37-.33.54-.53.17-.2.34-.38.52-.54.18-.17.38-.31.61-.45s.51-.22.85-.25c.2.21.34.45.42.72.08.27.16.54.24.8.08.27.19.52.32.74.13.23.34.4.63.51.02.18.04.41.06.68.02.27.06.54.1.8.05.26.12.49.22.7.1.21.24.34.43.39-.31,1.13-.6,2.24-.86,3.34-.26,1.1-.45,2.2-.59,3.3-.13,1.1-.18,2.2-.14,3.29s.21,2.19.51,3.29Z"/>
      <path class="cls-1" d="M35.62,22.75c.12-.49.34-.92.66-1.29.32-.37.68-.7,1.08-.97.4-.28.82-.51,1.26-.71.44-.2.86-.37,1.26-.52.88-.47,1.82-.92,2.82-1.36,1-.44,2.03-.85,3.09-1.22,1.06-.37,2.15-.64,3.28-.82,1.13-.18,2.33-.14,3.62.11.09.22.21.43.36.62.15.19.31.38.48.58.17.19.31.38.44.56.13.18.22.38.26.58.25.18.45.39.6.62.16.23.21.54.15.93-.21.2-.42.39-.62.55-.2.17-.42.32-.66.45-.86-.13-1.72-.12-2.58.02-.86.14-1.63.27-2.3.37-.22-.19-.48-.27-.76-.24-.28.02-.58.1-.88.21-.3.12-.6.24-.9.35-.3.12-.59.17-.86.14-.21.2-.48.35-.8.43s-.68.17-1.06.25c-.01.12.02.19.09.22.07.03.09.1.05.22.15.15.34.25.56.29s.46.1.7.15c.24.05.46.11.65.2.19.09.33.24.42.46.34-.03.64.02.91.16.26.14.49.31.66.53.18.21.32.45.42.7.1.25.16.48.18.69.08.18.17.25.26.22.09-.03.2,0,.32.11.09.29.29.58.59.86.3.28.54.6.74.95.09.56.17,1.07.24,1.51.06.44.02.9-.12,1.37-.27.87-.67,1.66-1.22,2.38-.54.71-1.18,1.36-1.89,1.94-.72.58-1.49,1.09-2.32,1.53-.83.44-1.65.82-2.44,1.14-.09-.01-.18,0-.27.02-.09.03-.12-.02-.08-.16-.17.17-.36.29-.57.36-.21.06-.44.1-.69.11-.25.01-.51.02-.77.02-.26,0-.51.03-.73.1-.17-.15-.33-.29-.47-.42-.14-.14-.25-.32-.34-.54-.11,0-.17-.04-.17-.16,0-.11-.04-.17-.13-.16.12-.24.17-.38.15-.41-.01-.03-.05-.06-.11-.08-.06-.02-.11-.04-.16-.07s-.06-.08-.05-.15c.07-.19.09-.4.05-.64-.04-.24-.09-.48-.13-.73-.04-.25-.05-.49-.01-.72.04-.23.19-.43.45-.59.78.02,1.51-.07,2.19-.28.68-.21,1.32-.48,1.91-.8.59-.33,1.15-.67,1.68-1.04.53-.37,1.06-.7,1.58-1,.05-.21.13-.39.25-.54.11-.15.23-.28.36-.41.13-.12.24-.26.34-.41.1-.15.17-.32.19-.53,0-.16-.04-.25-.14-.28-.1-.02-.16-.11-.18-.24l-.38-.07c-.45-.21-.96-.38-1.52-.5s-1.04-.27-1.45-.44c-.24.16-.47.21-.69.16-.22-.05-.51-.09-.85-.13-.78.02-1.53,0-2.25-.04-.73-.05-1.43-.19-2.12-.43-.06-.11-.12-.21-.2-.29-.08-.09-.2-.1-.38-.04-.15-.17-.3-.33-.46-.49-.15-.16-.29-.33-.42-.53.02-.28.04-.51.04-.71,0-.19-.08-.38-.25-.54.06-.3.11-.55.14-.73.03-.19,0-.42-.06-.72Z"/>
      <path class="cls-1" d="M73.07,33.69c-1.09.14-2.05.2-2.89.18-.84-.02-1.67-.16-2.49-.43-.05-.02-.1-.07-.15-.16-.05-.09-.11-.15-.15-.19-.14-.06-.31-.07-.5-.04-.19.03-.36.03-.5,0-.19-.08-.49-.23-.9-.45s-.78-.44-1.12-.64c-.44-.28-.85-.57-1.24-.85-.39-.29-.74-.6-1.04-.94-.08-.08-.17-.13-.29-.13-.11,0-.22-.02-.31-.06-.62.47-1.14,1.03-1.54,1.68-.4.65-.78,1.32-1.13,1.99-.35.67-.73,1.31-1.14,1.92s-.95,1.09-1.63,1.45c-.2.02-.39,0-.55-.05-.17-.05-.32-.13-.47-.22-.15-.09-.29-.18-.43-.25-.14-.08-.3-.13-.46-.17-.02-.27-.1-.52-.22-.74-.12-.22-.24-.42-.36-.62-.12-.2-.21-.39-.27-.58-.06-.19-.03-.38.09-.57-.15-.12-.37-.25-.65-.39.12-.15.18-.28.15-.39-.02-.11-.06-.22-.12-.33-.06-.11-.11-.23-.15-.36-.05-.13-.03-.27.05-.42.11,0,.25-.04.4-.1-.15-.17-.22-.27-.22-.31,0-.04-.02-.08-.1-.15-.06-.13-.04-.22.05-.26.09-.04.18-.09.26-.14,0-1.12.1-2.17.31-3.15s.46-1.93.75-2.85c.29-.92.56-1.85.84-2.79.27-.94.48-1.94.61-3.01.23-.27.4-.58.52-.94.12-.35.25-.71.39-1.06.14-.36.3-.71.49-1.06.19-.35.46-.64.83-.88.32,0,.61.06.88.18.26.13.57.16.94.11.08.11.15.22.22.32.07.11.15.22.25.32l.5-.15c.27.18.51.42.73.71.22.29.38.6.48.94.1.33.11.66.05.97-.06.31-.26.58-.58.79.03.11.05.2.04.25,0,.06-.02.11-.04.16-.02.05-.03.09-.02.14,0,.05.04.11.12.2-.43.38-.72.89-.9,1.52s-.25,1.19-.23,1.67c.25-.3.53-.59.83-.88.31-.29.62-.58.96-.86.33-.28.65-.55.96-.81.31-.26.59-.51.84-.76.69-.75,1.36-1.36,2.02-1.84.66-.48,1.35-1.02,2.08-1.61.18-.06.32-.08.42-.05.11.02.22.06.33.09-.01-.14-.06-.21-.14-.23-.08-.02-.12-.1-.11-.27.33-.12.62-.25.86-.4.24-.15.5-.29.79-.43.22.19.43.38.63.58.2.2.46.31.78.33.14.24.29.42.46.53.17.11.34.22.51.32.17.1.32.22.46.37.14.15.23.39.29.73-.08.17-.16.35-.25.54-.09.19-.16.42-.23.67-.42.45-.85.85-1.29,1.21-.44.36-.88.71-1.33,1.04-.45.34-.92.68-1.39,1.01-.47.34-.96.74-1.44,1.19-.1.17-.23.32-.39.46-.16.14-.33.28-.5.42-.17.14-.33.29-.48.44-.15.15-.26.32-.33.51-.07.03-.13.05-.2.05-.07,0-.14.02-.2.05-.05.17-.15.3-.29.4-.14.1-.23.24-.26.4.4.7.9,1.22,1.48,1.55.58.34,1.22.56,1.92.67.7.11,1.44.14,2.24.08.8-.06,1.63-.13,2.49-.2.09-.03.12-.08.11-.16-.02-.08.03-.11.15-.1.56.13,1,.35,1.33.66.32.3.71.6,1.14.88.03.87-.17,1.61-.6,2.22s-1.02,1.12-1.79,1.53Z"/>
      <path class="cls-1" d="M88.64,33.94c-.31-.16-.56-.38-.76-.65-.2-.27-.37-.57-.51-.89-.14-.32-.26-.66-.37-1.01-.1-.35-.21-.69-.32-1.01-.03-.29.02-.5.13-.65.11-.14.23-.28.37-.42.49-.06.93-.14,1.32-.24.39-.1.76-.19,1.13-.29.37-.09.73-.18,1.1-.27.37-.08.77-.15,1.2-.18.25-.66.49-1.3.7-1.91.22-.61.42-1.19.62-1.75.08-.53.2-1.02.35-1.48.16-.46.31-.9.46-1.32.15-.42.28-.83.39-1.25.11-.41.16-.85.17-1.31.18-.74.35-1.43.49-2.05.14-.62.23-1.36.26-2.22-.77.19-1.39.37-1.85.52-.46.15-.79.29-.99.41-.41.02-.75-.04-.99-.16-.25-.12-.46-.28-.62-.48-.16-.19-.31-.42-.43-.68-.13-.26-.27-.53-.44-.8.07-.19.06-.47,0-.82-.07-.36-.22-.61-.44-.75.16-.06.27-.21.33-.45.06-.24.06-.43-.02-.54.34-.13.71-.23,1.1-.3.39-.07.77-.13,1.15-.19.38-.06.74-.14,1.09-.22.35-.08.64-.22.87-.4,1.07-.14,2.18-.27,3.34-.42,1.16-.14,2.23-.29,3.21-.44.38.09.81.12,1.3.07.48-.04.97-.05,1.46-.03.49.02.93.12,1.33.29.4.17.69.51.88,1.01.31.01.55.08.72.19s.28.25.33.42c.06.17.09.37.1.58,0,.22.02.43.04.63-.31.28-.71.51-1.2.71-.49.2-1.03.37-1.62.52-.59.15-1.21.26-1.85.35-.65.09-1.28.17-1.89.24-.04.69-.15,1.5-.33,2.44-.18.94-.36,1.86-.55,2.76-.19.9-.35,1.7-.49,2.41-.14.71-.18,1.16-.15,1.37-.16.49-.3.91-.4,1.25-.11.34-.2.66-.29.96-.09.3-.18.59-.27.88-.09.29-.2.61-.33.98l2.1-.18c.06.22.17.37.32.44.15.07.31.13.48.18.17.05.33.11.47.19.14.08.22.22.24.43.4.07.66.2.78.4.12.2.17.42.14.66-.03.24-.11.49-.25.75-.13.26-.26.49-.39.69-.19-.02-.36.04-.51.19s-.29.31-.42.49c-.6-.03-1.19.01-1.76.12-.57.11-1.1.21-1.59.29-.1.03-.14.09-.11.18.03.09.01.16-.04.21-.66-.15-1.32-.17-1.98-.08-.67.1-1.34.26-2.01.47-.68.21-1.37.44-2.07.68-.71.24-1.43.4-2.17.48Z"/>
      <path class="cls-1" d="M120.67,15.78c-.52.05-1.07.13-1.66.25-.59.12-1.17.25-1.74.39-.41.1-.8.18-1.18.26-.38.08-.72.14-1.03.18-.1.47-.21.88-.33,1.24-.11.36-.24.72-.37,1.06-.13.36-.25.73-.35,1.1-.1.37-.2.77-.28,1.19-.18.35-.32.67-.43.96-.11.29-.19.61-.24.97-.22.33-.38.67-.47,1.02-.09.35-.16.65-.2.9l-.09.38c-.11.13-.18.24-.19.31-.01.07-.06.15-.14.21,0,.23-.05.46-.16.7-.03.11-.05.21-.07.3-.01.09-.02.16-.01.2.02.21-.02.34-.12.42.03.1.04.21.03.33-.01.11-.02.22-.03.33-.04.25-.04.45-.01.59.07.08.13.14.19.2.06.06.1.14.13.24.13.07.23.12.29.13.09.05.22.12.39.18l.31.28c.16.59.1,1.07-.15,1.45-.27.42-.78.66-1.52.73l-.37.03c-.11-.09-.18-.17-.21-.23-.17-.05-.31-.09-.42-.12-.11-.03-.21-.11-.3-.22-.28-.1-.5-.18-.68-.25l-.29-.13c-.02-.23-.03-.35-.03-.37-.16-.17-.29-.37-.38-.59-.09-.22-.17-.44-.23-.66-.06-.18-.12-.35-.19-.51s-.15-.3-.24-.42c-.15-1.19-.12-2.21.07-3.06s.4-1.66.63-2.45c.13-.43.26-.86.38-1.29s.23-.89.32-1.35l.25-.33c.12-.34.21-.62.28-.85.07-.22.15-.45.24-.69.05-.15.09-.29.13-.43.04-.14.08-.26.11-.37-.12.01-.24.03-.34.05-.1.02-.2.04-.31.07-.12.03-.23.06-.34.08-.1.02-.21.03-.31.04-.14.01-.25.01-.31,0-.22.12-.46.2-.73.22l-.31.03c-.06,0-.12,0-.17,0-.05,0-.1,0-.14,0-.21.02-.37.06-.49.14-.25.02-.48.04-.71.06l-.31.03s-.09.01-.15.03c-.06.02-.11.02-.15.03-.14.01-.3.01-.47,0-.17-.02-.35-.07-.54-.15-.28-.31-.46-.47-.54-.48l-.31-.35c-.03-.12-.07-.24-.12-.35-.05-.11-.1-.23-.16-.38-.1-.2-.2-.41-.29-.64-.09-.23-.15-.51-.18-.84,0-.17.04-.29.09-.38s.1-.16.14-.23l.05-.47h.4s.86-.08.86-.08c.66-.06,1.33-.14,2-.25.68-.11,1.37-.23,2.09-.35.41-.08.82-.16,1.24-.23.42-.08.85-.16,1.3-.24.07-.19.13-.38.2-.55l.3-.18c.37-.05.64-.03.8.07.16.1.3.2.41.29.45-.08.9-.17,1.36-.26.46-.09.92-.2,1.39-.32.69-.16,1.39-.32,2.09-.46.7-.14,1.38-.25,2.04-.3.29-.03.57-.04.84-.04.27,0,.52,0,.75.03l.33.19c.07.12.17.22.29.32.12.09.25.19.38.28.27.21.54.45.81.74.27.29.41.73.4,1.33-.14.26-.25.42-.33.47l-.25.4h-.31c-.12,0-.24.03-.34.07-.1.04-.2.08-.3.14-.08.05-.16.09-.24.13-.08.04-.17.07-.27.1-.19.02-.34.02-.45.02-.11,0-.23,0-.36.02Z"/>
    </g>
  </g>
</svg>