<?xml version="1.0" encoding="UTF-8"?>
<svg id="Layer_2" data-name="Layer 2" xmlns="http://www.w3.org/2000/svg" viewBox="0 0 38.94 38.94">
  <defs>
    <style>
      .cls-1 {
        fill: #f99b1d;
      }

      .cls-2 {
        fill: #fff5f5;
      }
    </style>
  </defs>
  <g id="Isolation_Mode" data-name="Isolation Mode">
    <g>
      <path class="cls-2" d="M37.52,19.47c0,9.99-8.09,18.08-18.08,18.08S1.36,29.46,1.36,19.47,9.46,1.39,19.44,1.39s18.08,8.1,18.08,18.08Z"/>
      <g>
        <path class="cls-1" d="M19.47,38.94C8.73,38.94,0,30.21,0,19.47S8.73,0,19.47,0s19.48,8.74,19.48,19.47-8.74,19.47-19.48,19.47ZM19.47,2.12C9.91,2.12,2.12,9.9,2.12,19.47s7.78,17.35,17.35,17.35,17.35-7.79,17.35-17.35S29.04,2.12,19.47,2.12Z"/>
        <g>
          <path class="cls-1" d="M20.62,4.07c0,.63-.51,1.14-1.15,1.14s-1.15-.51-1.15-1.14.51-1.15,1.15-1.15,1.15.52,1.15,1.15Z"/>
          <path class="cls-1" d="M20.62,34.87c0,.64-.51,1.15-1.15,1.15s-1.15-.51-1.15-1.15.51-1.15,1.15-1.15,1.15.51,1.15,1.15Z"/>
          <path class="cls-1" d="M34.87,20.62c-.63,0-1.14-.51-1.14-1.15s.51-1.15,1.14-1.15,1.15.52,1.15,1.15-.51,1.15-1.15,1.15Z"/>
          <path class="cls-1" d="M4.07,20.62c-.63,0-1.15-.51-1.15-1.15s.52-1.15,1.15-1.15,1.15.52,1.15,1.15-.51,1.15-1.15,1.15Z"/>
          <path class="cls-1" d="M12.47,5.72c.23.39.09.89-.29,1.11-.39.23-.89.09-1.11-.29-.23-.39-.1-.89.29-1.11.39-.22.89-.09,1.11.3Z"/>
          <path class="cls-1" d="M27.88,32.4c.22.39.09.89-.3,1.11-.39.23-.89.1-1.11-.29-.22-.39-.09-.89.3-1.12.39-.22.89-.09,1.11.3Z"/>
          <path class="cls-1" d="M6.54,11.07c.39.23.52.72.3,1.11-.22.39-.72.52-1.11.29-.39-.22-.52-.72-.3-1.11.23-.39.72-.52,1.11-.3Z"/>
          <path class="cls-1" d="M33.21,26.47c.39.22.52.72.3,1.11-.22.39-.72.52-1.11.3-.39-.23-.52-.72-.3-1.11.23-.39.72-.52,1.11-.29Z"/>
          <path class="cls-1" d="M33.22,12.47c-.39.23-.89.09-1.11-.29-.22-.39-.09-.89.29-1.11.39-.23.89-.09,1.11.3.22.39.09.89-.3,1.11Z"/>
          <path class="cls-1" d="M6.54,27.88c-.39.22-.89.09-1.11-.3-.22-.39-.09-.88.3-1.11.39-.23.89-.09,1.11.3.22.39.09.88-.3,1.11Z"/>
          <path class="cls-1" d="M27.88,6.54c-.23.39-.72.52-1.11.29-.39-.22-.52-.72-.3-1.11.22-.39.72-.52,1.11-.3.39.23.52.72.3,1.11Z"/>
          <path class="cls-1" d="M12.47,33.22c-.23.39-.72.52-1.11.29-.39-.22-.52-.72-.3-1.11.22-.39.72-.52,1.11-.3.39.23.52.72.3,1.12Z"/>
        </g>
        <g>
          <rect class="cls-1" x="19.79" y="16.31" width="11.25" height="1.16" transform="translate(-4.76 12.33) rotate(-25.02)"/>
          <path class="cls-1" d="M19.53,18.13c-.85,0-1.53.69-1.53,1.54s.68,1.54,1.53,1.54,1.54-.69,1.54-1.54-.69-1.54-1.54-1.54ZM19.53,20.21c-.3,0-.54-.25-.54-.55s.24-.55.54-.55.55.25.55.55-.24.55-.55.55Z"/>
        </g>
      </g>
    </g>
  </g>
</svg>